<?xml version="1.0" encoding="UTF-8" standalone="no"?>
<svg xmlns="http://www.w3.org/2000/svg" width="400" height="410">

  <style>
    .green  { fill: hsl(125,  75%, 40%); }
    .purple { fill: hsl(290,  80%, 30%); }
    .red    { fill: hsl(  0,  92%, 50%); }
    .blue   { fill: hsl(200, 100%, 40%); }
    .yellow { fill: hsl( 50, 100%, 50%); }
    #logo   { fill: #333; }
    #bg     { fill: none; }
    @media (prefers-color-scheme: dark) { #bg { fill: #fff; } }
    @media (max-width: 32px) { #oif path { fill: none; } }
  </style>

  <circle id="bg" cx="200" cy="207" r="200" />

  <!-- https://upload.wikimedia.org/wikipedia/commons/0/0b/Logo_OIF.svg -->
  <g id="oif" transform="scale(10-10) translate(-1-42)">
    <path class="green"  transform="translate(17.908 39.630)" d="m0 0-.006-1.004c.957.139 1.932.21 2.921.199l.002-3.691c5.757-.389 10.777-4.304 12.497-9.896l4.339 1.411C17.137-4.583 8.896.944 0 0"/>
    <path class="red"    transform="translate(31.284 06.873)" d="m0 0-2.17 2.984C-7.059-.083-13.419.132-18.098 3.647l-2.681-3.693C-13.727-5.302-3.81-4.928 2.832 1.062l-.586.817A18.628 18.628 0 0 0 0 0"/>
    <path class="purple" transform="translate(37.526 29.670)" d="m0 0-.958-.304c.429-.867.799-1.773 1.093-2.717l-3.509-1.142c1.407-5.597-.764-11.579-5.551-14.944l2.683-3.69C.937-17.715 3.644-8.168 0 0"/>
    <path class="blue"   transform="translate(12.673 09.812)" d="M0 0c-4.428 3.702-6.189 9.817-4.293 15.353l-4.339 1.408c-2.82-8.329.6-17.646 8.35-22.112l.596.811c-.857.448-1.688.963-2.481 1.555L0 0"/>
    <path class="yellow" transform="translate(07.550 25.434)" d="M0 0c2.151 5.356 7.424 8.92 13.275 8.828l-.002 4.563c-8.794.107-16.597-6.024-18.45-14.775l.955-.317c.161.955.395 1.904.713 2.84L0 0"/>
  </g>

  <!-- https://upload.wikimedia.org/wikipedia/commons/1/18/Five-pointed_star.svg -->
  <g id="logo" transform="scale(8)">
    <path d="m25,1 6,17h18l-14,11 5,17-15-10-15,10 5-17-14-11h18z"/>
  </g>

</svg>
