<svg xmlns="http://www.w3.org/2000/svg" class="gnu"
    viewBox="0 60 900 240">
    <!-- viewBox="60 60 780 240"> -->

  <!--
  <link xmlns="http://www.w3.org/1999/xhtml" rel="stylesheet"
      href="kb_style.css" type="text/css"/>
  -->

  <style>
    rect {
      stroke: #666;
      stroke-width: .5px;
      fill: #fff;
    }
    .specialKey,
    .specialKey rect {
      fill: #e4e4e4;
    }
    .homeKey rect {
      fill: hsl(222, 100%, 90%);
    }
    text {
      fill: #333;
      font: normal 20px sans-serif;
      text-align: center;
    }

    #row_AD { transform: translate(64px,  64px); }
    #row_AC { transform: translate(64px, 124px); }
    #row_AB { transform: translate(64px, 184px); }
    #row_AA { transform: translate(64px, 244px); }

    /*
    .left   { transform: translate(-15px, 0); }
    .right  { transform: translate(+15px, 0); }
    */

    .specialKey .win,
    .specialKey .gnu {
      font-size: 14px;
    }
    .specialKey .win,
    .specialKey .mac,
    .specialKey .gnu {
      display: none;
    }
    .mac .specialKey .mac,
    .gnu .specialKey .gnu,
    .win .specialKey .win { display: block; }

    .level3, .level4 { fill: green; }

    .deadKey {
      fill: red;
      font-size: 16px;
      transform: translateY(-3px);
    }
    .diacritic {
      font-size: 24px;
      font-weight: bolder;
      transform: translateY(8px);
    }
  </style>

  <g id="row_AD">
    <g class="left">
      <g class="specialKey" transform="translate(30)">
        <rect width="52" height="52" rx="5" ry="5"/>
        <text x="16.4" y="42.8" text-anchor="middle">↹</text>
      </g>
      <g transform="translate(90)">
        <rect width="52" height="52" rx="5" ry="5"/>
        <g class="key" text-anchor="middle">
          <text x="12.8" y="20.6" class="level2">Q</text>
          <text x="38.0" y="43.4" class="level3"> </text>
        </g>
      </g>
      <g transform="translate(150)">
        <rect width="52" height="52" rx="5" ry="5"/>
        <g class="key" text-anchor="middle">
          <text x="12.8" y="20.6" class="level2">W</text>
          <text x="38.0" y="43.4" class="level3">é</text>
        </g>
      </g>
      <g transform="translate(210)">
        <rect width="52" height="52" rx="5" ry="5"/>
        <g class="key" text-anchor="middle">
          <text x="12.8" y="20.6" class="level2">E</text>
          <text x="38.0" y="43.4" class="level3">è</text>
        </g>
      </g>
      <g transform="translate(270)">
        <rect width="52" height="52" rx="5" ry="5"/>
        <g class="key" text-anchor="middle">
          <text x="12.8" y="20.6" class="level2">R</text>
          <text x="38.0" y="43.4" class="level3"> </text>
        </g>
      </g>
      <g transform="translate(330)">
        <rect width="52" height="52" rx="5" ry="5"/>
        <g class="key" text-anchor="middle">
          <text x="12.8" y="20.6" class="level2">T</text>
          <text x="38.0" y="43.4" class="level3"> </text>
        </g>
      </g>
    </g>
    <g class="right">
      <g transform="translate(390)">
        <rect width="52" height="52" rx="5" ry="5"/>
        <g class="key" text-anchor="middle">
          <text x="12.8" y="20.6" class="level2">Y</text>
          <text x="38.0" y="43.4" class="level3"> </text>
        </g>
      </g>
      <g transform="translate(450)">
        <rect width="52" height="52" rx="5" ry="5"/>
        <g class="key" text-anchor="middle">
          <text x="12.8" y="20.6" class="level2">U</text>
          <text x="38.0" y="43.4" class="level3">ù</text>
        </g>
      </g>
      <g transform="translate(510)">
        <rect width="52" height="52" rx="5" ry="5"/>
        <g class="key" text-anchor="middle">
          <text x="12.8" y="20.6" class="level2">I</text>
          <text x="38.0" y="43.4" class="level3"> </text>
        </g>
      </g>
      <g transform="translate(570)">
        <rect width="52" height="52" rx="5" ry="5"/>
        <g class="key" text-anchor="middle">
          <text x="12.8" y="20.6" class="level2">O</text>
          <text x="38.0" y="43.4" class="level3">œ</text>
        </g>
      </g>
      <g transform="translate(630)">
        <rect width="52" height="52" rx="5" ry="5"/>
        <g class="key" text-anchor="middle">
          <text x="12.8" y="20.6" class="level2">P</text>
          <text x="38.0" y="43.4" class="level3"> </text>
        </g>
      </g>
      <g class="specialKey" transform="translate(690)">
        <rect width="52" height="52" rx="5" ry="5"/>
        <text x="16.4" y="42.8" text-anchor="middle" style="font-size: 12px;">⌫</text>
      </g>
    </g>
  </g>

  <g id="row_AC">
    <g class="left">
      <g class="specialKey" transform="translate(30)">
        <rect width="52" height="52" rx="5" ry="5"/>
        <text x="16.4" y="42.8" text-anchor="middle">⎋</text>
      </g>
      <g transform="translate(90)" class="homeKey">
        <rect width="52" height="52" rx="5" ry="5"/>
        <g class="key" text-anchor="middle">
          <text x="12.8" y="20.6" class="level2">A</text>
          <text x="38.0" y="43.4" class="level3">à</text>
        </g>
      </g>
      <g transform="translate(150)" class="homeKey">
        <rect width="52" height="52" rx="5" ry="5"/>
        <g class="key" text-anchor="middle">
          <text x="12.8" y="20.6" class="level2">S</text>
          <text x="38.0" y="43.4" class="level3"> </text>
        </g>
      </g>
      <g transform="translate(210)" class="homeKey">
        <rect width="52" height="52" rx="5" ry="5"/>
        <g class="key" text-anchor="middle">
          <text x="12.8" y="20.6" class="level2">D</text>
          <text x="38.0" y="43.4" class="level3">ê</text>
        </g>
      </g>
      <g transform="translate(270)" class="homeKey">
        <rect width="52" height="52" rx="5" ry="5"/>
        <g class="key" text-anchor="middle">
          <text x="12.8" y="20.6" class="level2">F</text>
          <text x="38.0" y="43.4" class="level3"> </text>
        </g>
      </g>
      <g transform="translate(330)">
        <rect width="52" height="52" rx="5" ry="5"/>
        <g class="key" text-anchor="middle">
          <text x="12.8" y="20.6" class="level2">G</text>
          <text x="38.0" y="43.4" class="level3"> </text>
        </g>
      </g>
    </g>
    <g class="right">
      <g transform="translate(390)">
        <rect width="52" height="52" rx="5" ry="5"/>
        <g class="key" text-anchor="middle">
          <text x="12.8" y="20.6" class="level2">H</text>
          <text x="38.0" y="43.4" class="level3"> </text>
        </g>
      </g>
      <g transform="translate(450)" class="homeKey">
        <rect width="52" height="52" rx="5" ry="5"/>
        <g class="key" text-anchor="middle">
          <text x="12.8" y="20.6" class="level2">J</text>
          <text x="38.0" y="43.4" class="level3">û</text>
        </g>
      </g>
      <g transform="translate(510)" class="homeKey">
        <rect width="52" height="52" rx="5" ry="5"/>
        <g class="key" text-anchor="middle">
          <text x="12.8" y="20.6" class="level2">K</text>
          <text x="38.0" y="43.4" class="level3">î</text>
        </g>
      </g>
      <g transform="translate(570)" class="homeKey">
        <rect width="52" height="52" rx="5" ry="5"/>
        <g class="key" text-anchor="middle">
          <text x="12.8" y="20.6" class="level2">L</text>
          <text x="38.0" y="43.4" class="level3">ô</text>
        </g>
      </g>
      <g transform="translate(630)" class="homeKey">
        <rect width="52" height="52" rx="5" ry="5"/>
        <g class="key" text-anchor="middle">
          <text x="12.8" y="20.6" class="level2 deadKey">★</text>
          <text x="38.0" y="43.4" class="level3 deadKey diacritic">¨</text>
        </g>
      </g>
      <g class="specialKey" transform="translate(690)">
        <rect width="52" height="52" rx="5" ry="5"/>
        <text x="16.4" y="42.8" text-anchor="middle">⏎</text>
      </g>
    </g>
  </g>

  <g id="row_AB">
    <g class="left">
      <g class="specialKey" transform="translate(30)">
        <rect width="52" height="52" rx="5" ry="5"/>
        <text x="16.4" y="42.8" text-anchor="middle">⇧</text>
      </g>
      <g transform="translate(90)">
        <rect width="52" height="52" rx="5" ry="5"/>
        <g class="key" text-anchor="middle">
          <text x="12.8" y="20.6" class="level2">Z</text>
          <text x="38.0" y="43.4" class="level3">â</text>
        </g>
      </g>
      <g transform="translate(150)">
        <rect width="52" height="52" rx="5" ry="5"/>
        <g class="key" text-anchor="middle">
          <text x="12.8" y="20.6" class="level2">X</text>
          <text x="38.0" y="43.4" class="level3"> </text>
        </g>
      </g>
      <g transform="translate(210)">
        <rect width="52" height="52" rx="5" ry="5"/>
        <g class="key" text-anchor="middle">
          <text x="12.8" y="20.6" class="level2">C</text>
          <text x="38.0" y="43.4" class="level3">ç</text>
        </g>
      </g>
      <g transform="translate(270)">
        <rect width="52" height="52" rx="5" ry="5"/>
        <g class="key" text-anchor="middle">
          <text x="12.8" y="20.6" class="level2">V</text>
          <text x="38.0" y="43.4" class="level3"> </text>
        </g>
      </g>
      <g transform="translate(330)">
        <rect width="52" height="52" rx="5" ry="5"/>
        <g class="key" text-anchor="middle">
          <text x="12.8" y="20.6" class="level2">B</text>
          <text x="38.0" y="43.4" class="level3"> </text>
        </g>
      </g>
    </g>
    <g class="right">
      <g transform="translate(390)">
        <rect width="52" height="52" rx="5" ry="5"/>
        <g class="key" text-anchor="middle">
          <text x="12.8" y="20.6" class="level2">N</text>
          <text x="38.0" y="43.4" class="level3"> </text>
        </g>
      </g>
      <g transform="translate(450)">
        <rect width="52" height="52" rx="5" ry="5"/>
        <g class="key" text-anchor="middle">
          <text x="12.8" y="20.6" class="level2">M</text>
          <text x="38.0" y="43.4" class="level3">µ</text>
        </g>
      </g>
      <g transform="translate(510)">
        <rect width="52" height="52" rx="5" ry="5"/>
        <g class="key" text-anchor="middle">
          <text x="12.8" y="43.4" class="level1">,</text>
          <text x="12.8" y="20.6" class="level2">;</text>
          <text x="38.0" y="43.4" class="level3">·</text>
        </g>
      </g>
      <g transform="translate(570)">
        <rect width="52" height="52" rx="5" ry="5"/>
        <g class="key" text-anchor="middle">
          <text x="12.8" y="43.4" class="level1">.</text>
          <text x="12.8" y="20.6" class="level2">:</text>
          <text x="38.0" y="43.4" class="level3">…</text>
        </g>
      </g>
      <g transform="translate(630)">
        <rect width="52" height="52" rx="5" ry="5"/>
        <g class="key" text-anchor="middle">
          <text x="12.8" y="43.4" class="level1">/</text>
          <text x="12.8" y="20.6" class="level2">?</text>
          <text x="38.0" y="43.4" class="level3"> </text>
        </g>
      </g>
      <g class="specialKey" transform="translate(690)">
        <rect width="52" height="52" rx="5" ry="5"/>
        <text x="16.4" y="42.8" text-anchor="middle">⇧</text>
      </g>
    </g>
  </g>

  <g id="row_AA">
    <g class="left">
      <g class="specialKey" transform="translate(30)">
        <rect width="52" height="52" rx="5" ry="5"/>
        <text x="11.0" y="42.8" class="win gnu">Ctrl</text>
        <text x="16.4" y="42.8" class="mac" text-anchor="middle">⌃</text>
      </g>
      <g class="specialKey" transform="translate(90)">
        <rect width="82" height="52" rx="5" ry="5"/>
        <text x="11.0" y="42.8" class="win">Win</text>
        <text x="11.0" y="42.8" class="gnu">Super</text>
        <text x="16.4" y="42.8" class="mac" text-anchor="middle">⌘</text>
      </g>
      <g class="specialKey" transform="translate(180)">
        <rect width="82" height="52" rx="5" ry="5"/>
        <text x="11.0" y="42.8" class="win gnu">Alt</text>
        <text x="16.4" y="42.8" class="mac" text-anchor="middle">⌥</text>
      </g>
    </g>
    <g class="homeKey" transform="translate(270)">
      <rect width="232" height="52" rx="5" ry="5"/>
    </g>
    <g class="right">
      <g class="specialKey" transform="translate(510)">
        <rect width="82" height="52" rx="5" ry="5"/>
        <text x="11.0" y="42.8" class="win gnu">AltGr</text>
        <text x="16.4" y="42.8" class="mac" text-anchor="middle">⌥</text>
      </g>
      <g class="specialKey" transform="translate(600)">
        <rect width="82" height="52" rx="5" ry="5"/>
        <text x="11.0" y="42.8" class="win">Win</text>
        <text x="11.0" y="42.8" class="gnu">Super</text>
        <text x="16.4" y="42.8" class="mac" text-anchor="middle">⌘</text>
      </g>
      <g class="specialKey" transform="translate(690)">
        <rect width="52" height="52" rx="5" ry="5"/>
        <text x="11.0" y="42.8" class="win gnu">Ctrl</text>
        <text x="16.4" y="42.8" class="mac" text-anchor="middle">⌃</text>
      </g>
    </g>
  </g>

</svg>
